name C:\Users\u0101727\Documents\MyRepositories\upper-imu-dc\Results\main_mocap_tracking\Case_10\FLX01_angularVelocities_bodyFrame.mot
datacolumns 4
datarows 82
range 3.51000000 4.32000000
endheader 
time	radius_imu_x	radius_imu_y	radius_imu_z	
          3.51000000	          0.01693942	          0.27582723	          0.10275471	
          3.52000000	          0.03013075	          0.21127526	          0.10033407	
          3.53000000	          0.04239055	          0.14534675	          0.09658129	
          3.54000000	          0.05346746	          0.08114365	          0.09180242	
          3.55000000	          0.06317192	          0.02210246	          0.08637173	
          3.56000000	          0.07141618	         -0.02916829	          0.08068615	
          3.57000000	          0.07823704	         -0.07181616	          0.07509879	
          3.58000000	          0.08376476	         -0.10686117	          0.06984845	
          3.59000000	          0.08815761	         -0.13658814	          0.06501452	
          3.60000000	          0.09155501	         -0.16370465	          0.06052396	
          3.61000000	          0.09407339	         -0.19057379	          0.05621007	
          3.62000000	          0.09580668	         -0.21841950	          0.05188758	
          3.63000000	          0.09678860	         -0.24644966	          0.04740470	
          3.64000000	          0.09693772	         -0.27129664	          0.04266433	
          3.65000000	          0.09604152	         -0.28726090	          0.03763298	
          3.66000000	          0.09380229	         -0.28737835	          0.03235395	
          3.67000000	          0.08993281	         -0.26498637	          0.02697058	
          3.68000000	          0.08429197	         -0.21555235	          0.02176211	
          3.69000000	          0.07705722	         -0.13867186	          0.01719020	
          3.70000000	          0.06889256	         -0.03982170	          0.01393669	
          3.71000000	          0.06099023	          0.06935053	          0.01288463	
          3.72000000	          0.05486963	          0.17334393	          0.01499859	
          3.73000000	          0.05198343	          0.25710795	          0.02112568	
          3.74000000	          0.05331546	          0.31030436	          0.03179445	
          3.75000000	          0.05912147	          0.32992001	          0.04708479	
          3.76000000	          0.06887342	          0.32064870	          0.06660787	
          3.77000000	          0.08139946	          0.29320742	          0.08959738	
          3.78000000	          0.09516373	          0.26125594	          0.11507999	
          3.79000000	          0.10860922	          0.23776995	          0.14207494	
          3.80000000	          0.12048357	          0.23175031	          0.16977246	
          3.81000000	          0.13007342	          0.24611943	          0.19765172	
          3.82000000	          0.13729101	          0.27736518	          0.22551770	
          3.83000000	          0.14259483	          0.31693551	          0.25345825	
          3.84000000	          0.14677667	          0.35382267	          0.28174122	
          3.85000000	          0.15068828	          0.37749427	          0.31068646	
          3.86000000	          0.15499187	          0.38037848	          0.34055017	
          3.87000000	          0.16000034	          0.35935195	          0.37144974	
          3.88000000	          0.16563611	          0.31601330	          0.40333818	
          3.89000000	          0.17149997	          0.25588229	          0.43602169	
          3.90000000	          0.17701570	          0.18691180	          0.46920732	
          3.91000000	          0.18160329	          0.11774948	          0.50256592	
          3.92000000	          0.18482894	          0.05609750	          0.53579372	
          3.93000000	          0.18649292	          0.00740250	          0.56865891	
          3.94000000	          0.18664643	         -0.02597317	          0.60103137	
          3.95000000	          0.18555750	         -0.04497529	          0.63290251	
          3.96000000	          0.18365405	         -0.05338452	          0.66439973	
          3.97000000	          0.18146426	         -0.05670503	          0.69579043	
          3.98000000	          0.17956644	         -0.06071621	          0.72746823	
          3.99000000	          0.17855431	         -0.07013027	          0.75992031	
          4.00000000	          0.17901366	         -0.08771915	          0.79367897	
          4.01000000	          0.18149747	         -0.11404810	          0.82925916	
          4.02000000	          0.18648701	         -0.14772377	          0.86708338	
          4.03000000	          0.19433821	         -0.18592769	          0.90740149	
          4.04000000	          0.20522973	         -0.22501645	          0.95022239	
          4.05000000	          0.21913746	         -0.26112925	          0.99527423	
          4.06000000	          0.23584930	         -0.29090738	          1.04199995	
          4.07000000	          0.25501647	         -0.31239985	          1.08958622	
          4.08000000	          0.27623053	         -0.32600927	          1.13702199	
          4.09000000	          0.29911691	         -0.33513168	          1.18318218	
          4.10000000	          0.32343340	         -0.34614327	          1.22692849	
          4.11000000	          0.34915438	         -0.36761374	          1.26721338	
          4.12000000	          0.37651503	         -0.40891060	          1.30316787	
          4.13000000	          0.40598565	         -0.47846485	          1.33414818	
          4.14000000	          0.43815337	         -0.58190259	          1.35972408	
          4.15000000	          0.47351701	         -0.72021988	          1.37961460	
          4.16000000	          0.51223802	         -0.88827600	          1.39359939	
          4.17000000	          0.55391501	         -1.07399858	          1.40144248	
          4.18000000	          0.59745117	         -1.25870525	          1.40286156	
          4.19000000	          0.64106661	         -1.41878047	          1.39756303	
          4.20000000	          0.68247250	         -1.52863230	          1.38533978	
          4.21000000	          0.71918899	         -1.56461632	          1.36620891	
          4.22000000	          0.74897978	         -1.50963054	          1.34056881	
          4.23000000	          0.77037576	         -1.35803905	          1.30935945	
          4.24000000	          0.78319509	         -1.11981854	          1.27417963	
          4.25000000	          0.78883566	         -0.82156187	          1.23726373	
          4.26000000	          0.79010773	         -0.50228613	          1.20123800	
          4.27000000	          0.79062692	         -0.20507719	          1.16870402	
          4.28000000	          0.79405972	          0.03155451	          1.14180977	
          4.29000000	          0.80350901	          0.17938934	          1.12194552	
          4.30000000	          0.82113499	          0.22281275	          1.10960294	
          4.31000000	          0.84796751	          0.15905435	          1.10436858	
          4.32000000	          0.88383369	         -0.00217571	          1.10501184	
